<svg width="158" height="24" viewBox="0 0 158 24" fill="none" xmlns="http://www.w3.org/2000/svg">
<path d="M4.99705 21.0038H19.0029C20.1079 21.0038 21.0037 20.108 21.0037 19.003V4.99717C21.0037 3.89214 20.1079 2.99634 19.0029 2.99634H8.99872C7.89369 2.99634 6.99788 3.89214 6.99788 4.99717V19.003C6.99788 20.108 6.10208 21.0038 4.99705 21.0038V21.0038C3.89202 21.0038 2.99622 20.108 2.99622 19.003V7.99842C2.99622 6.89339 3.89202 5.99759 4.99705 5.99759H6.99788" stroke="white" stroke-width="1.5" stroke-linecap="round" stroke-linejoin="round"/>
<path d="M10.4994 6.99801H17.5023" stroke="white" stroke-width="1.5" stroke-linecap="round" stroke-linejoin="round"/>
<path d="M10.4994 10.9997H17.5023" stroke="white" stroke-width="1.5" stroke-linecap="round" stroke-linejoin="round"/>
<path d="M10.4994 15.0014H17.5023" stroke="white" stroke-width="1.5" stroke-linecap="round" stroke-linejoin="round"/>
<path d="M34.1963 6.95801H38.7148C39.6081 6.95801 40.3281 7.21094 40.875 7.7168C41.4219 8.2181 41.6953 8.92448 41.6953 9.83594C41.6953 10.6198 41.4515 11.3034 40.9639 11.8867C40.4762 12.4655 39.7266 12.7549 38.7148 12.7549H35.5566V17H34.1963V6.95801ZM40.3213 9.84277C40.3213 9.10449 40.0479 8.60319 39.501 8.33887C39.2002 8.19759 38.7878 8.12695 38.2637 8.12695H35.5566V11.6064H38.2637C38.8743 11.6064 39.3688 11.4766 39.7471 11.2168C40.1299 10.957 40.3213 10.499 40.3213 9.84277ZM47.2598 15.8379C47.7201 15.8379 48.0983 15.79 48.3945 15.6943C48.9232 15.5166 49.3561 15.1748 49.6934 14.6689C49.9622 14.2633 50.1559 13.7438 50.2744 13.1104C50.3428 12.7321 50.377 12.3812 50.377 12.0576C50.377 10.8135 50.1286 9.84733 49.6318 9.15918C49.1396 8.47103 48.3444 8.12695 47.2461 8.12695H44.833V15.8379H47.2598ZM43.4658 6.95801H47.5332C48.9141 6.95801 49.985 7.44792 50.7461 8.42773C51.4251 9.31185 51.7646 10.4443 51.7646 11.8252C51.7646 12.8916 51.5641 13.8555 51.1631 14.7168C50.4567 16.2389 49.2422 17 47.5195 17H43.4658V6.95801ZM53.6514 6.95801H60.6172V8.18848H55.0117V11.2373H59.9404V12.4336H55.0117V17H53.6514V6.95801ZM68.3623 9.87695C68.9092 9.87695 69.3649 9.95443 69.7295 10.1094C70.0941 10.2598 70.3857 10.458 70.6045 10.7041C70.8232 10.9456 70.9782 11.2168 71.0693 11.5176C71.1605 11.8184 71.2061 12.1191 71.2061 12.4199C71.2061 12.748 71.1605 13.0465 71.0693 13.3154C70.9827 13.5798 70.862 13.8145 70.707 14.0195C70.5566 14.2201 70.3812 14.3887 70.1807 14.5254C69.9801 14.6576 69.7705 14.7533 69.5518 14.8125C69.8434 14.8626 70.0964 14.9561 70.3105 15.0928C70.5293 15.2249 70.7093 15.3913 70.8506 15.5918C70.9919 15.7878 71.0967 16.0111 71.165 16.2617C71.2334 16.5124 71.2676 16.7767 71.2676 17.0547C71.2676 17.4648 71.2083 17.8454 71.0898 18.1963C70.9759 18.5518 70.7936 18.8571 70.543 19.1123C70.2923 19.3675 69.9688 19.568 69.5723 19.7139C69.1758 19.8597 68.6995 19.9326 68.1436 19.9326C67.6377 19.9326 67.2048 19.862 66.8447 19.7207C66.4847 19.5794 66.1908 19.3675 65.9629 19.085C65.7396 18.8024 65.5755 18.4469 65.4707 18.0186C65.3659 17.5947 65.3135 17.098 65.3135 16.5283H66.5166C66.5166 16.902 66.5508 17.237 66.6191 17.5332C66.6875 17.8294 66.7946 18.0801 66.9404 18.2852C67.0863 18.4948 67.2754 18.6543 67.5078 18.7637C67.7448 18.873 68.0296 18.9277 68.3623 18.9277C68.9229 18.9277 69.3444 18.766 69.627 18.4424C69.9141 18.1188 70.0576 17.6768 70.0576 17.1162C70.0576 16.8109 70.0052 16.5488 69.9004 16.3301C69.7956 16.1113 69.6589 15.9336 69.4902 15.7969C69.3216 15.6602 69.1302 15.5599 68.916 15.4961C68.7018 15.4323 68.4876 15.4004 68.2734 15.4004C68.1595 15.4004 68.0592 15.4027 67.9727 15.4072C67.8906 15.4118 67.8223 15.4186 67.7676 15.4277C67.6992 15.4368 67.6423 15.4437 67.5967 15.4482L67.5898 14.3613C67.6354 14.3704 67.6924 14.3773 67.7607 14.3818C67.8747 14.3955 68.057 14.4023 68.3076 14.4023C68.499 14.4023 68.695 14.3727 68.8955 14.3135C69.096 14.2542 69.2783 14.1562 69.4424 14.0195C69.6064 13.8828 69.7409 13.7051 69.8457 13.4863C69.9505 13.263 70.0029 12.9919 70.0029 12.6729C70.0029 12.3903 69.9619 12.1396 69.8799 11.9209C69.7979 11.6976 69.6839 11.5085 69.5381 11.3535C69.3923 11.1986 69.2191 11.0824 69.0186 11.0049C68.818 10.9229 68.5993 10.8818 68.3623 10.8818V9.87695ZM77.5293 12.748C77.5521 12.3652 77.6113 12.0007 77.707 11.6543C77.8073 11.3079 77.9531 11.0049 78.1445 10.7451C78.3359 10.4808 78.5775 10.2712 78.8691 10.1162C79.1654 9.95671 79.5254 9.87695 79.9492 9.87695C80.446 9.87695 80.863 9.9681 81.2002 10.1504C81.542 10.3327 81.8177 10.5742 82.0273 10.875C82.237 11.1712 82.3874 11.5085 82.4785 11.8867C82.5697 12.265 82.6152 12.6523 82.6152 13.0488C82.6152 13.3906 82.597 13.6937 82.5605 13.958C82.5286 14.2223 82.4831 14.4593 82.4238 14.6689C82.3691 14.8786 82.3008 15.0609 82.2188 15.2158C82.1413 15.3708 82.057 15.5098 81.9658 15.6328C82.139 15.5827 82.3122 15.5417 82.4854 15.5098C82.6585 15.4733 82.8135 15.4437 82.9502 15.4209C83.1097 15.3981 83.2624 15.3799 83.4082 15.3662V16.4873C83.2259 16.4782 83.0368 16.4759 82.8408 16.4805C82.6722 16.485 82.4808 16.4964 82.2666 16.5146C82.057 16.5283 81.8473 16.5534 81.6377 16.5898C81.5055 16.6126 81.3643 16.6445 81.2139 16.6855C81.0635 16.7266 80.9131 16.7721 80.7627 16.8223C80.6123 16.8724 80.4665 16.9248 80.3252 16.9795C80.1885 17.0296 80.0677 17.0752 79.9629 17.1162C79.8581 17.1572 79.7738 17.1891 79.71 17.2119C79.6507 17.2393 79.6234 17.2529 79.6279 17.2529V17.2461C79.6188 17.2552 79.6143 17.2598 79.6143 17.2598V16.1182C79.833 16.1182 80.0495 16.068 80.2637 15.9678C80.4779 15.8675 80.6693 15.7103 80.8379 15.4961C81.0111 15.2819 81.1501 15.0085 81.2549 14.6758C81.3643 14.3385 81.4189 13.9352 81.4189 13.4658C81.4189 12.6182 81.2959 11.9756 81.0498 11.5381C80.8083 11.1006 80.4368 10.8818 79.9355 10.8818C79.6758 10.8818 79.4548 10.9342 79.2725 11.0391C79.0947 11.1393 78.9443 11.2783 78.8213 11.4561C78.7028 11.6292 78.6094 11.8343 78.541 12.0713C78.4727 12.3037 78.4202 12.5521 78.3838 12.8164C78.3519 13.0807 78.3314 13.3542 78.3223 13.6367C78.3177 13.9193 78.3154 14.195 78.3154 14.4639H76.7637C76.7637 14.195 76.7546 13.9215 76.7363 13.6436C76.7227 13.361 76.693 13.0876 76.6475 12.8232C76.6019 12.5589 76.5381 12.3105 76.4561 12.0781C76.3786 11.8411 76.276 11.6338 76.1484 11.4561C76.0254 11.2783 75.875 11.1393 75.6973 11.0391C75.5241 10.9342 75.319 10.8818 75.082 10.8818C74.8268 10.8818 74.5967 10.932 74.3916 11.0322C74.1865 11.1279 74.0088 11.2852 73.8584 11.5039C73.7126 11.7181 73.5986 11.9961 73.5166 12.3379C73.4391 12.6797 73.4004 13.0921 73.4004 13.5752C73.4004 13.9489 73.4346 14.2747 73.5029 14.5527C73.5713 14.8307 73.6602 15.07 73.7695 15.2705C73.8789 15.4665 74.0042 15.6283 74.1455 15.7559C74.2868 15.8789 74.4326 15.9792 74.583 16.0566C74.7334 16.1296 74.8792 16.1797 75.0205 16.207C75.1618 16.2344 75.2894 16.248 75.4033 16.248V17.2529C74.9886 17.2529 74.5876 17.1982 74.2002 17.0889C73.8174 16.9795 73.4756 16.7881 73.1748 16.5146C72.8786 16.2412 72.6416 15.8721 72.4639 15.4072C72.2861 14.9378 72.1973 14.3454 72.1973 13.6299C72.1973 13.1104 72.2451 12.6227 72.3408 12.167C72.4365 11.7113 72.596 11.3148 72.8193 10.9775C73.0426 10.6357 73.3389 10.3669 73.708 10.1709C74.0817 9.97493 74.542 9.87695 75.0889 9.87695C75.5583 9.87695 75.9411 9.95671 76.2373 10.1162C76.5335 10.2712 76.7682 10.4808 76.9414 10.7451C77.1146 11.0094 77.2399 11.3148 77.3174 11.6611C77.3994 12.0075 77.4564 12.3698 77.4883 12.748H77.5293ZM84.3516 8.31152C84.3516 7.94238 84.4062 7.68262 84.5156 7.53223C84.6296 7.38184 84.8027 7.30664 85.0352 7.30664C85.2174 7.30664 85.4066 7.33626 85.6025 7.39551C85.7985 7.45475 86.0081 7.52083 86.2314 7.59375C86.4593 7.66211 86.7054 7.72591 86.9697 7.78516C87.234 7.8444 87.5257 7.87402 87.8447 7.87402C88.1637 7.87402 88.4577 7.84668 88.7266 7.79199C89 7.7373 89.2347 7.67806 89.4307 7.61426C89.6585 7.53678 89.8659 7.4502 90.0527 7.35449V8.40723C89.8887 8.49837 89.6973 8.5804 89.4785 8.65332C89.2871 8.71712 89.0524 8.77409 88.7744 8.82422C88.501 8.86979 88.1865 8.89258 87.8311 8.89258C87.471 8.89258 87.1497 8.87435 86.8672 8.83789C86.5892 8.79688 86.3522 8.7513 86.1562 8.70117C85.9284 8.64648 85.7256 8.58268 85.5479 8.50977V10.0957C85.5524 10.2051 85.5524 10.3213 85.5479 10.4443C85.5433 10.5674 85.5342 10.6904 85.5205 10.8135C85.5114 10.9365 85.4977 11.055 85.4795 11.1689C85.4658 11.2783 85.4521 11.374 85.4385 11.4561C85.5433 11.3285 85.6663 11.2054 85.8076 11.0869C85.9489 10.9684 86.1084 10.8659 86.2861 10.7793C86.4684 10.6882 86.6689 10.6175 86.8877 10.5674C87.111 10.5127 87.3548 10.4854 87.6191 10.4854C88.043 10.4854 88.4326 10.54 88.7881 10.6494C89.1481 10.7542 89.4557 10.932 89.7109 11.1826C89.9707 11.4333 90.1735 11.7637 90.3193 12.1738C90.4652 12.584 90.5381 13.0921 90.5381 13.6982C90.5381 14.2178 90.472 14.6963 90.3398 15.1338C90.2122 15.5667 90.0163 15.9404 89.752 16.2549C89.4876 16.5693 89.1549 16.8154 88.7539 16.9932C88.3529 17.1663 87.8789 17.2529 87.332 17.2529C86.9219 17.2529 86.5641 17.2028 86.2588 17.1025C85.9535 17.0068 85.6891 16.8701 85.4658 16.6924C85.2471 16.5101 85.0648 16.2936 84.9189 16.043C84.7777 15.7923 84.6637 15.5143 84.5771 15.209C84.4951 14.9036 84.4359 14.5778 84.3994 14.2314C84.3675 13.8805 84.3516 13.516 84.3516 13.1377V8.31152ZM87.3457 11.4902C87.0859 11.4902 86.8421 11.5449 86.6143 11.6543C86.391 11.7591 86.195 11.9095 86.0264 12.1055C85.8577 12.2969 85.721 12.527 85.6162 12.7959C85.516 13.0602 85.4613 13.3519 85.4521 13.6709C85.4567 14.0036 85.4954 14.3249 85.5684 14.6348C85.6413 14.9447 85.7552 15.2204 85.9102 15.4619C86.0651 15.6989 86.2656 15.8903 86.5117 16.0361C86.7578 16.1774 87.0563 16.248 87.4072 16.248C87.7308 16.248 88.0133 16.1888 88.2549 16.0703C88.4964 15.9518 88.6969 15.7832 88.8564 15.5645C89.0205 15.3411 89.1413 15.0745 89.2188 14.7646C89.3008 14.4502 89.3418 14.1016 89.3418 13.7188C89.3418 13.3359 89.2939 13.0055 89.1982 12.7275C89.1025 12.445 88.9658 12.2126 88.7881 12.0303C88.6149 11.848 88.4053 11.7135 88.1592 11.627C87.9131 11.5358 87.6419 11.4902 87.3457 11.4902ZM91.9531 12.6387C91.9531 12.502 91.9668 12.3402 91.9941 12.1533C92.0215 11.9619 92.0716 11.7637 92.1445 11.5586C92.222 11.3535 92.3268 11.1507 92.459 10.9502C92.5911 10.7497 92.762 10.5697 92.9717 10.4102C93.1859 10.2507 93.4434 10.123 93.7441 10.0273C94.0495 9.92708 94.4072 9.87695 94.8174 9.87695C95.182 9.87695 95.5033 9.91569 95.7812 9.99316C96.0592 10.0706 96.3008 10.1732 96.5059 10.3008C96.7155 10.4284 96.8887 10.5765 97.0254 10.7451C97.1621 10.9137 97.2715 11.0892 97.3535 11.2715C97.4401 11.4538 97.5016 11.6383 97.5381 11.8252C97.5745 12.012 97.5928 12.1852 97.5928 12.3447C97.5928 12.6364 97.5449 12.9167 97.4492 13.1855C97.3581 13.4544 97.235 13.6937 97.0801 13.9033C96.9297 14.113 96.7542 14.2884 96.5537 14.4297C96.3577 14.5664 96.1549 14.6507 95.9453 14.6826C96.1868 14.7008 96.4352 14.7624 96.6904 14.8672C96.9502 14.9674 97.1849 15.1133 97.3945 15.3047C97.6042 15.4915 97.7751 15.724 97.9072 16.002C98.0439 16.2799 98.1123 16.6058 98.1123 16.9795C98.1123 17.4124 98.0371 17.8089 97.8867 18.1689C97.7363 18.5335 97.5153 18.8457 97.2236 19.1055C96.932 19.3698 96.5719 19.5726 96.1436 19.7139C95.7152 19.8597 95.223 19.9326 94.667 19.9326C94.1247 19.9326 93.6576 19.862 93.2656 19.7207C92.8783 19.5794 92.5592 19.3652 92.3086 19.0781C92.0579 18.7956 91.8734 18.4424 91.7549 18.0186C91.6364 17.5947 91.5771 17.098 91.5771 16.5283H92.7461C92.7461 17.2985 92.9102 17.891 93.2383 18.3057C93.5664 18.7204 94.0654 18.9277 94.7354 18.9277C95.0361 18.9277 95.3187 18.889 95.583 18.8115C95.8519 18.7386 96.0843 18.627 96.2803 18.4766C96.4762 18.3262 96.6312 18.137 96.7451 17.9092C96.859 17.6859 96.916 17.4261 96.916 17.1299C96.916 16.7881 96.8522 16.4987 96.7246 16.2617C96.6016 16.0247 96.4352 15.8333 96.2256 15.6875C96.0205 15.5371 95.7812 15.43 95.5078 15.3662C95.2389 15.3024 94.9587 15.2705 94.667 15.2705C94.5485 15.2705 94.446 15.2728 94.3594 15.2773C94.2773 15.2819 94.209 15.2887 94.1543 15.2979L93.9902 15.3184L93.9834 14.2314C94.029 14.2406 94.0859 14.2474 94.1543 14.252C94.2682 14.2656 94.4505 14.2725 94.7012 14.2725C94.8926 14.2725 95.0885 14.2451 95.2891 14.1904C95.4896 14.1357 95.6719 14.04 95.8359 13.9033C96 13.762 96.1344 13.5752 96.2393 13.3428C96.3441 13.1058 96.3965 12.8096 96.3965 12.4541C96.3965 12.2217 96.3555 12.0098 96.2734 11.8184C96.1914 11.6224 96.0752 11.4561 95.9248 11.3193C95.779 11.1826 95.6058 11.0755 95.4053 10.998C95.2048 10.9206 94.986 10.8818 94.749 10.8818C94.5348 10.8818 94.3457 10.9115 94.1816 10.9707C94.0176 11.0254 93.8763 11.1006 93.7578 11.1963C93.6393 11.292 93.5413 11.4014 93.4639 11.5244C93.3864 11.6475 93.3226 11.7751 93.2725 11.9072C93.2269 12.0348 93.195 12.1624 93.1768 12.29C93.1585 12.4176 93.1494 12.5339 93.1494 12.6387H91.9531ZM102.556 9.89062C102.998 9.89062 103.378 9.95898 103.697 10.0957C104.016 10.2324 104.278 10.4238 104.483 10.6699C104.693 10.9115 104.846 11.2031 104.941 11.5449C105.042 11.8867 105.092 12.2627 105.092 12.6729V16.8428C105.092 17.3213 105.014 17.752 104.859 18.1348C104.704 18.5176 104.493 18.8411 104.224 19.1055C103.959 19.3743 103.652 19.5794 103.301 19.7207C102.95 19.862 102.576 19.9326 102.18 19.9326C101.71 19.9326 101.298 19.8779 100.942 19.7686C100.591 19.6592 100.295 19.4837 100.054 19.2422C99.8167 19.0007 99.6367 18.6885 99.5137 18.3057C99.3952 17.9229 99.3359 17.458 99.3359 16.9111H100.539C100.539 17.2529 100.578 17.5492 100.655 17.7998C100.733 18.055 100.842 18.2646 100.983 18.4287C101.129 18.5973 101.302 18.7227 101.503 18.8047C101.703 18.8867 101.927 18.9277 102.173 18.9277C102.478 18.9277 102.738 18.8753 102.952 18.7705C103.171 18.6657 103.349 18.5221 103.485 18.3398C103.627 18.1621 103.729 17.9502 103.793 17.7041C103.857 17.4626 103.889 17.2051 103.889 16.9316V12.9121C103.889 12.6387 103.866 12.3812 103.82 12.1396C103.779 11.8936 103.704 11.6794 103.595 11.4971C103.485 11.3102 103.337 11.1644 103.15 11.0596C102.968 10.9502 102.738 10.8955 102.46 10.8955C102.187 10.8955 101.956 10.9456 101.77 11.0459C101.587 11.1462 101.439 11.2874 101.325 11.4697C101.216 11.6475 101.136 11.8639 101.086 12.1191C101.04 12.3743 101.018 12.6546 101.018 12.96H99.8076C99.8076 12.3994 99.8691 11.9255 99.9922 11.5381C100.12 11.1462 100.3 10.8294 100.532 10.5879C100.769 10.3418 101.056 10.1641 101.394 10.0547C101.735 9.94531 102.123 9.89062 102.556 9.89062ZM111.6 12.6113C111.627 12.2376 111.691 11.8844 111.791 11.5518C111.891 11.2191 112.039 10.9297 112.235 10.6836C112.436 10.4329 112.689 10.237 112.994 10.0957C113.299 9.94987 113.669 9.87695 114.102 9.87695C114.598 9.87695 115.015 9.98405 115.353 10.1982C115.694 10.4124 115.968 10.695 116.173 11.0459C116.382 11.3968 116.533 11.7979 116.624 12.249C116.715 12.6956 116.761 13.1536 116.761 13.623C116.761 14.2064 116.686 14.7236 116.535 15.1748C116.385 15.626 116.182 16.0065 115.927 16.3164C115.676 16.6263 115.387 16.861 115.059 17.0205C114.73 17.18 114.386 17.2598 114.026 17.2598V16.1182C114.245 16.1182 114.448 16.0544 114.635 15.9268C114.822 15.7992 114.983 15.6237 115.12 15.4004C115.261 15.1725 115.371 14.9082 115.448 14.6074C115.526 14.3021 115.564 13.9717 115.564 13.6162C115.564 12.7275 115.441 12.0531 115.195 11.5928C114.954 11.1279 114.582 10.8955 114.081 10.8955C113.803 10.8955 113.568 10.9456 113.377 11.0459C113.19 11.1462 113.033 11.2852 112.905 11.4629C112.782 11.6361 112.687 11.8389 112.618 12.0713C112.55 12.3037 112.5 12.5521 112.468 12.8164C112.436 13.0807 112.415 13.3542 112.406 13.6367C112.402 13.9193 112.399 14.195 112.399 14.4639H110.813C110.813 14.195 110.804 13.9215 110.786 13.6436C110.772 13.361 110.743 13.0876 110.697 12.8232C110.656 12.5589 110.597 12.3105 110.52 12.0781C110.442 11.8411 110.34 11.6361 110.212 11.4629C110.084 11.2852 109.929 11.1462 109.747 11.0459C109.569 10.9411 109.357 10.8864 109.111 10.8818C108.856 10.8818 108.631 10.932 108.435 11.0322C108.239 11.1279 108.075 11.2852 107.942 11.5039C107.81 11.7181 107.71 11.9961 107.642 12.3379C107.573 12.6797 107.539 13.0921 107.539 13.5752C107.539 13.9489 107.569 14.2725 107.628 14.5459C107.687 14.8193 107.767 15.0518 107.867 15.2432C107.967 15.4346 108.081 15.5895 108.209 15.708C108.341 15.8265 108.476 15.9199 108.612 15.9883C108.749 16.0566 108.886 16.1022 109.022 16.125C109.159 16.1478 109.285 16.1592 109.398 16.1592L109.426 17.2529C109.011 17.2529 108.612 17.1846 108.229 17.0479C107.851 16.9111 107.516 16.6947 107.225 16.3984C106.938 16.1022 106.707 15.724 106.534 15.2637C106.366 14.7988 106.281 14.2383 106.281 13.582V13.418C106.281 13.1081 106.29 12.7799 106.309 12.4336C106.331 12.0872 106.377 11.7386 106.445 11.3877C106.514 11.0368 106.616 10.6973 106.753 10.3691C106.89 10.0365 107.072 9.7334 107.3 9.45996C107.532 9.18197 107.819 8.94271 108.161 8.74219C108.503 8.54167 108.915 8.39811 109.398 8.31152C109.708 8.25684 110.002 8.21354 110.28 8.18164C110.558 8.14974 110.816 8.12012 111.053 8.09277C111.29 8.06543 111.504 8.03809 111.695 8.01074C111.887 7.97884 112.049 7.93555 112.181 7.88086C112.313 7.82617 112.415 7.75553 112.488 7.66895C112.561 7.5778 112.598 7.46159 112.598 7.32031L113.924 7.32715C113.924 7.65527 113.878 7.92415 113.787 8.13379C113.701 8.34342 113.543 8.51432 113.315 8.64648C113.088 8.77865 112.778 8.88574 112.386 8.96777C111.998 9.04525 111.504 9.11816 110.902 9.18652C110.615 9.21842 110.353 9.2526 110.116 9.28906C109.879 9.32096 109.663 9.36426 109.467 9.41895C109.271 9.46908 109.091 9.53743 108.927 9.62402C108.767 9.70605 108.619 9.81087 108.482 9.93848C108.692 9.89746 108.922 9.87695 109.173 9.87695C109.642 9.87695 110.025 9.94987 110.321 10.0957C110.622 10.237 110.861 10.4307 111.039 10.6768C111.217 10.9229 111.347 11.2122 111.429 11.5449C111.511 11.8776 111.568 12.2331 111.6 12.6113ZM118.053 15.0244C118.053 14.4092 118.137 13.8281 118.306 13.2812C118.479 12.7298 118.725 12.2376 119.044 11.8047C119.368 11.3672 119.759 11.0003 120.22 10.7041C120.68 10.4033 121.197 10.1937 121.771 10.0752C121.676 10.0023 121.58 9.9248 121.484 9.84277C121.393 9.76074 121.311 9.6696 121.238 9.56934C121.165 9.46452 121.106 9.34603 121.061 9.21387C121.015 9.08171 120.992 8.92904 120.992 8.75586C120.992 8.52344 121.038 8.31836 121.129 8.14062C121.22 7.95833 121.348 7.80794 121.512 7.68945C121.676 7.57096 121.869 7.4821 122.093 7.42285C122.316 7.35905 122.562 7.32715 122.831 7.32715C123.095 7.32715 123.335 7.35905 123.549 7.42285C123.768 7.4821 123.952 7.57324 124.103 7.69629C124.257 7.81934 124.376 7.97201 124.458 8.1543C124.545 8.33659 124.588 8.5485 124.588 8.79004C124.588 8.9541 124.565 9.09993 124.52 9.22754C124.479 9.35514 124.422 9.47135 124.349 9.57617C124.28 9.67643 124.201 9.76758 124.109 9.84961C124.018 9.92708 123.927 10 123.836 10.0684C124.415 10.1868 124.939 10.3965 125.408 10.6973C125.878 10.998 126.276 11.3672 126.604 11.8047C126.937 12.2422 127.192 12.7367 127.37 13.2881C127.552 13.835 127.644 14.416 127.644 15.0312C127.644 15.7331 127.536 16.3825 127.322 16.9795C127.108 17.5765 126.796 18.0938 126.386 18.5312C125.98 18.9688 125.479 19.3105 124.882 19.5566C124.289 19.8073 123.613 19.9326 122.852 19.9326C122.09 19.9326 121.411 19.8096 120.814 19.5635C120.222 19.3174 119.721 18.9756 119.311 18.5381C118.9 18.1006 118.588 17.5833 118.374 16.9863C118.16 16.3848 118.053 15.7308 118.053 15.0244ZM126.44 15.0518C126.44 14.6325 126.379 14.2223 126.256 13.8213C126.133 13.4202 125.96 13.0511 125.736 12.7139C125.518 12.3721 125.256 12.0713 124.95 11.8115C124.649 11.5518 124.319 11.349 123.959 11.2031C124.041 11.2715 124.121 11.3444 124.198 11.4219C124.276 11.4948 124.342 11.5791 124.396 11.6748C124.456 11.7705 124.504 11.8776 124.54 11.9961C124.576 12.1146 124.595 12.2467 124.595 12.3926C124.595 12.6341 124.547 12.8483 124.451 13.0352C124.36 13.2174 124.235 13.3701 124.075 13.4932C123.916 13.6162 123.729 13.7096 123.515 13.7734C123.3 13.8327 123.075 13.8623 122.838 13.8623C122.569 13.8623 122.323 13.8327 122.1 13.7734C121.876 13.7096 121.683 13.6185 121.519 13.5C121.354 13.377 121.227 13.2266 121.136 13.0488C121.045 12.8665 120.999 12.6592 120.999 12.4268C120.999 12.2627 121.02 12.1169 121.061 11.9893C121.106 11.8571 121.163 11.7409 121.231 11.6406C121.304 11.5404 121.384 11.4492 121.471 11.3672C121.562 11.2852 121.653 11.21 121.744 11.1416C121.352 11.2692 121.001 11.4629 120.691 11.7227C120.386 11.9779 120.126 12.2786 119.912 12.625C119.702 12.9714 119.541 13.3519 119.427 13.7666C119.313 14.1813 119.256 14.6074 119.256 15.0449C119.256 15.5781 119.34 16.0817 119.509 16.5557C119.682 17.0251 119.924 17.4352 120.233 17.7861C120.548 18.137 120.924 18.415 121.361 18.6201C121.799 18.8252 122.286 18.9277 122.824 18.9277C123.362 18.9277 123.852 18.8252 124.294 18.6201C124.741 18.415 125.121 18.137 125.436 17.7861C125.755 17.4352 126.001 17.0251 126.174 16.5557C126.352 16.0817 126.44 15.5804 126.44 15.0518ZM122.817 10.8408C122.758 11.0687 122.678 11.2555 122.578 11.4014C122.482 11.5426 122.387 11.668 122.291 11.7773C122.2 11.8822 122.12 11.9801 122.052 12.0713C121.983 12.1624 121.949 12.2695 121.949 12.3926C121.949 12.5156 121.974 12.6182 122.024 12.7002C122.075 12.7777 122.138 12.8415 122.216 12.8916C122.298 12.9372 122.389 12.9691 122.489 12.9873C122.59 13.0055 122.692 13.0146 122.797 13.0146C122.902 13.0146 123.004 13.0078 123.104 12.9941C123.209 12.9759 123.303 12.9463 123.385 12.9053C123.467 12.8597 123.533 12.7959 123.583 12.7139C123.633 12.6318 123.658 12.5247 123.658 12.3926C123.658 12.2604 123.624 12.1488 123.556 12.0576C123.487 11.9619 123.405 11.8617 123.31 11.7568C123.218 11.652 123.125 11.5312 123.029 11.3945C122.938 11.2533 122.868 11.0687 122.817 10.8408ZM122.811 10.335C122.861 10.1117 122.931 9.93164 123.022 9.79492C123.118 9.65365 123.212 9.53288 123.303 9.43262C123.398 9.3278 123.48 9.22754 123.549 9.13184C123.617 9.03613 123.651 8.9222 123.651 8.79004C123.651 8.65788 123.626 8.55078 123.576 8.46875C123.526 8.38672 123.46 8.3252 123.378 8.28418C123.296 8.23861 123.202 8.20898 123.098 8.19531C122.997 8.17708 122.897 8.16797 122.797 8.16797C122.692 8.16797 122.587 8.17708 122.482 8.19531C122.382 8.21354 122.291 8.24772 122.209 8.29785C122.132 8.34342 122.068 8.40723 122.018 8.48926C121.967 8.56673 121.942 8.66699 121.942 8.79004C121.942 8.91309 121.977 9.02018 122.045 9.11133C122.113 9.20247 122.193 9.30046 122.284 9.40527C122.38 9.51009 122.476 9.63542 122.571 9.78125C122.672 9.92253 122.751 10.1071 122.811 10.335ZM131.629 10.4648C131.629 10.679 131.638 10.8818 131.656 11.0732C131.674 11.2601 131.709 11.4355 131.759 11.5996C131.813 11.7637 131.886 11.9163 131.978 12.0576C132.073 12.1943 132.196 12.3197 132.347 12.4336C132.616 12.6432 132.846 12.8392 133.037 13.0215C133.233 13.1992 133.395 13.3838 133.522 13.5752C133.65 13.7666 133.743 13.9717 133.803 14.1904C133.862 14.4092 133.892 14.6644 133.892 14.9561C133.892 15.266 133.835 15.5599 133.721 15.8379C133.611 16.1159 133.45 16.3597 133.235 16.5693C133.026 16.7744 132.766 16.9385 132.456 17.0615C132.151 17.1846 131.804 17.2461 131.417 17.2461C131.062 17.2461 130.733 17.2005 130.433 17.1094C130.136 17.0182 129.879 16.8815 129.66 16.6992C129.446 16.5169 129.28 16.2891 129.161 16.0156C129.043 15.7422 128.983 15.4232 128.983 15.0586C128.983 14.8216 128.99 14.6302 129.004 14.4844C129.013 14.4023 129.022 14.3271 129.031 14.2588L130.221 14.2725C130.212 14.318 130.205 14.3773 130.2 14.4502C130.196 14.514 130.191 14.596 130.187 14.6963C130.187 14.792 130.187 14.9082 130.187 15.0449C130.187 15.1816 130.212 15.3206 130.262 15.4619C130.316 15.6032 130.396 15.7308 130.501 15.8447C130.606 15.9587 130.736 16.0521 130.891 16.125C131.046 16.1979 131.226 16.2344 131.431 16.2344C131.636 16.2344 131.816 16.2025 131.971 16.1387C132.126 16.0749 132.256 15.9883 132.36 15.8789C132.47 15.7695 132.552 15.6419 132.606 15.4961C132.661 15.3503 132.688 15.1953 132.688 15.0312C132.688 14.7624 132.659 14.5345 132.6 14.3477C132.54 14.1608 132.458 13.9967 132.354 13.8555C132.253 13.7142 132.13 13.5889 131.984 13.4795C131.843 13.3656 131.688 13.2471 131.52 13.124C131.292 12.96 131.105 12.7959 130.959 12.6318C130.813 12.4632 130.699 12.2764 130.617 12.0713C130.535 11.8662 130.478 11.6338 130.446 11.374C130.414 11.1143 130.398 10.8112 130.398 10.4648H131.629ZM135.225 14.4434C135.225 13.819 135.272 13.2676 135.368 12.7891C135.464 12.3105 135.571 11.9072 135.689 11.5791C135.826 11.1963 135.981 10.8636 136.154 10.5811L137.214 11.0254C137.068 11.2533 136.936 11.5312 136.817 11.8594C136.717 12.1465 136.626 12.5042 136.544 12.9326C136.462 13.361 136.421 13.8737 136.421 14.4707C136.421 15.0768 136.476 15.6488 136.585 16.1865C136.699 16.7243 136.863 17.196 137.077 17.6016C137.296 18.0072 137.565 18.3285 137.884 18.5654C138.203 18.8024 138.572 18.9209 138.991 18.9209C139.333 18.9209 139.629 18.8639 139.88 18.75C140.135 18.6406 140.347 18.4925 140.516 18.3057C140.684 18.1234 140.81 17.9115 140.892 17.6699C140.974 17.4284 141.015 17.1777 141.015 16.918C141.015 16.5397 140.937 16.2321 140.782 15.9951C140.632 15.7536 140.443 15.5645 140.215 15.4277C139.987 15.291 139.741 15.1976 139.477 15.1475C139.217 15.0973 138.98 15.0723 138.766 15.0723C138.652 15.0723 138.563 15.0745 138.499 15.0791C138.435 15.0791 138.385 15.0814 138.349 15.0859C138.308 15.0905 138.28 15.0928 138.267 15.0928V13.917C138.317 13.9215 138.369 13.9261 138.424 13.9307C138.474 13.9352 138.529 13.9398 138.588 13.9443C138.652 13.9443 138.722 13.9443 138.8 13.9443C138.927 13.9443 139.064 13.9375 139.21 13.9238C139.36 13.9056 139.508 13.8805 139.654 13.8486C139.805 13.8122 139.948 13.7643 140.085 13.7051C140.222 13.6413 140.342 13.5638 140.447 13.4727C140.557 13.3815 140.643 13.2744 140.707 13.1514C140.771 13.0238 140.803 12.8779 140.803 12.7139C140.803 12.5498 140.775 12.4085 140.721 12.29C140.666 12.167 140.582 12.0599 140.468 11.9688C140.358 11.873 140.219 11.7933 140.051 11.7295C139.887 11.6611 139.693 11.6019 139.47 11.5518C139.201 11.4925 138.978 11.4196 138.8 11.333C138.622 11.2464 138.479 11.1393 138.369 11.0117C138.264 10.8796 138.189 10.7223 138.144 10.54C138.103 10.3577 138.082 10.139 138.082 9.88379H139.388C139.388 10.0342 139.413 10.1504 139.463 10.2324C139.518 10.3099 139.6 10.3737 139.709 10.4238C139.818 10.474 139.955 10.5218 140.119 10.5674C140.288 10.6084 140.486 10.6722 140.714 10.7588C140.937 10.8408 141.126 10.9456 141.281 11.0732C141.441 11.1963 141.571 11.3353 141.671 11.4902C141.771 11.6452 141.844 11.8138 141.89 11.9961C141.935 12.1738 141.958 12.3584 141.958 12.5498C141.958 12.8232 141.91 13.0716 141.814 13.2949C141.723 13.5137 141.591 13.7051 141.418 13.8691C141.249 14.0332 141.042 14.1676 140.796 14.2725C140.554 14.3773 140.283 14.4456 139.982 14.4775C140.274 14.5322 140.554 14.6188 140.823 14.7373C141.097 14.8558 141.336 15.013 141.541 15.209C141.746 15.4049 141.91 15.6396 142.033 15.9131C142.156 16.182 142.218 16.4941 142.218 16.8496C142.218 17.2598 142.14 17.6517 141.985 18.0254C141.83 18.3991 141.607 18.7272 141.315 19.0098C141.028 19.2923 140.677 19.5156 140.263 19.6797C139.853 19.8483 139.388 19.9326 138.868 19.9326C138.394 19.9326 137.975 19.8529 137.61 19.6934C137.246 19.5339 136.927 19.3174 136.653 19.0439C136.384 18.7751 136.159 18.4583 135.977 18.0938C135.794 17.7337 135.646 17.3509 135.532 16.9453C135.423 16.5352 135.343 16.1182 135.293 15.6943C135.247 15.266 135.225 14.849 135.225 14.4434ZM146.155 17.2461C145.704 17.2461 145.294 17.1641 144.925 17C144.56 16.8314 144.248 16.5944 143.988 16.2891C143.729 15.9792 143.528 15.6077 143.387 15.1748C143.245 14.7419 143.175 14.2565 143.175 13.7188C143.175 13.1673 143.257 12.6569 143.421 12.1875C143.585 11.7181 143.824 11.3125 144.139 10.9707C144.458 10.6243 144.847 10.3532 145.308 10.1572C145.772 9.96126 146.303 9.86328 146.9 9.86328C147.493 9.86328 148.015 9.96126 148.466 10.1572C148.922 10.3532 149.3 10.6221 149.601 10.9639C149.906 11.3057 150.136 11.709 150.291 12.1738C150.446 12.6387 150.523 13.1377 150.523 13.6709C150.523 14.1221 150.453 14.5618 150.312 14.9902C150.175 15.4186 149.979 15.8014 149.724 16.1387C149.473 16.4714 149.172 16.7402 148.821 16.9453C148.47 17.1504 148.081 17.2529 147.652 17.2529V16.248C147.803 16.248 147.974 16.2002 148.165 16.1045C148.361 16.0042 148.543 15.8493 148.712 15.6396C148.881 15.4255 149.022 15.152 149.136 14.8193C149.254 14.4821 149.313 14.0788 149.313 13.6094C149.313 13.1628 149.252 12.7686 149.129 12.4268C149.006 12.085 148.835 11.8001 148.616 11.5723C148.397 11.3398 148.135 11.1644 147.83 11.0459C147.529 10.9274 147.199 10.8682 146.839 10.8682C146.479 10.8682 146.148 10.9297 145.848 11.0527C145.547 11.1712 145.287 11.3467 145.068 11.5791C144.85 11.8115 144.679 12.0986 144.556 12.4404C144.437 12.7822 144.378 13.1719 144.378 13.6094C144.378 14.0879 144.442 14.4958 144.569 14.833C144.697 15.1657 144.852 15.4368 145.034 15.6465C145.216 15.8561 145.41 16.0088 145.615 16.1045C145.82 16.2002 146 16.248 146.155 16.248V17.2461ZM154.352 10.4648C154.352 10.679 154.361 10.8818 154.379 11.0732C154.397 11.2601 154.431 11.4355 154.481 11.5996C154.536 11.7637 154.609 11.9163 154.7 12.0576C154.796 12.1943 154.919 12.3197 155.069 12.4336C155.338 12.6432 155.568 12.8392 155.76 13.0215C155.956 13.1992 156.118 13.3838 156.245 13.5752C156.373 13.7666 156.466 13.9717 156.525 14.1904C156.585 14.4092 156.614 14.6644 156.614 14.9561C156.614 15.266 156.557 15.5599 156.443 15.8379C156.334 16.1159 156.172 16.3597 155.958 16.5693C155.748 16.7744 155.489 16.9385 155.179 17.0615C154.873 17.1846 154.527 17.2461 154.14 17.2461C153.784 17.2461 153.456 17.2005 153.155 17.1094C152.859 17.0182 152.602 16.8815 152.383 16.6992C152.169 16.5169 152.002 16.2891 151.884 16.0156C151.765 15.7422 151.706 15.4232 151.706 15.0586C151.706 14.8216 151.713 14.6302 151.727 14.4844C151.736 14.4023 151.745 14.3271 151.754 14.2588L152.943 14.2725C152.934 14.318 152.927 14.3773 152.923 14.4502C152.918 14.514 152.914 14.596 152.909 14.6963C152.909 14.792 152.909 14.9082 152.909 15.0449C152.909 15.1816 152.934 15.3206 152.984 15.4619C153.039 15.6032 153.119 15.7308 153.224 15.8447C153.328 15.9587 153.458 16.0521 153.613 16.125C153.768 16.1979 153.948 16.2344 154.153 16.2344C154.358 16.2344 154.538 16.2025 154.693 16.1387C154.848 16.0749 154.978 15.9883 155.083 15.8789C155.192 15.7695 155.274 15.6419 155.329 15.4961C155.384 15.3503 155.411 15.1953 155.411 15.0312C155.411 14.7624 155.382 14.5345 155.322 14.3477C155.263 14.1608 155.181 13.9967 155.076 13.8555C154.976 13.7142 154.853 13.5889 154.707 13.4795C154.566 13.3656 154.411 13.2471 154.242 13.124C154.014 12.96 153.827 12.7959 153.682 12.6318C153.536 12.4632 153.422 12.2764 153.34 12.0713C153.258 11.8662 153.201 11.6338 153.169 11.374C153.137 11.1143 153.121 10.8112 153.121 10.4648H154.352Z" fill="white"/>
</svg>
