<svg width="24" height="24" viewBox="0 0 24 24" fill="none" xmlns="http://www.w3.org/2000/svg">
<path d="M21 8L10 19L5 14" stroke="white" stroke-width="2" stroke-linecap="round" stroke-linejoin="round"/>
<path d="M1.99077 9H1.14702L2.68324 4.63636H3.65909L5.19744 9H4.35369L3.18821 5.53125H3.15412L1.99077 9ZM2.01847 7.28906H4.3196V7.92401H2.01847V7.28906ZM5.77219 9V4.63636H7.44265C7.75799 4.63636 8.02006 4.68608 8.22887 4.78551C8.4391 4.88352 8.59606 5.01776 8.69975 5.18821C8.80487 5.35866 8.85742 5.55185 8.85742 5.76776C8.85742 5.94531 8.82333 6.0973 8.75515 6.22372C8.68697 6.34872 8.59535 6.45028 8.48029 6.52841C8.36523 6.60653 8.23668 6.66264 8.09464 6.69673V6.73935C8.24947 6.74787 8.3979 6.79545 8.53995 6.8821C8.68342 6.96733 8.8006 7.08807 8.89151 7.24432C8.98242 7.40057 9.02788 7.58949 9.02788 7.81108C9.02788 8.03693 8.97319 8.24006 8.86381 8.42045C8.75444 8.59943 8.58967 8.74077 8.3695 8.84446C8.14933 8.94815 7.87234 9 7.53853 9H5.77219ZM6.56268 8.33949H7.41282C7.69975 8.33949 7.90643 8.2848 8.03285 8.17543C8.16069 8.06463 8.22461 7.92259 8.22461 7.74929C8.22461 7.62003 8.19265 7.50355 8.12873 7.39986C8.06481 7.29474 7.9739 7.21236 7.856 7.1527C7.7381 7.09162 7.59748 7.06108 7.43413 7.06108H6.56268V8.33949ZM6.56268 6.49219H7.34464C7.481 6.49219 7.60387 6.46733 7.71325 6.41761C7.82262 6.36648 7.90856 6.29474 7.97106 6.20241C8.03498 6.10866 8.06694 5.99787 8.06694 5.87003C8.06694 5.70099 8.00728 5.56179 7.88796 5.45241C7.77006 5.34304 7.59464 5.28835 7.36168 5.28835H6.56268V6.49219ZM13.4506 6.10866H12.6538C12.631 5.97798 12.5891 5.86222 12.5281 5.76136C12.467 5.65909 12.391 5.57244 12.3001 5.50142C12.2092 5.4304 12.1055 5.37713 11.989 5.34162C11.8739 5.30469 11.7496 5.28622 11.6161 5.28622C11.3789 5.28622 11.1687 5.34588 10.9854 5.4652C10.8022 5.5831 10.6587 5.75639 10.555 5.98509C10.4513 6.21236 10.3995 6.49006 10.3995 6.81818C10.3995 7.15199 10.4513 7.43324 10.555 7.66193C10.6602 7.8892 10.8036 8.06108 10.9854 8.17756C11.1687 8.29261 11.3782 8.35014 11.614 8.35014C11.7447 8.35014 11.8668 8.3331 11.9805 8.29901C12.0955 8.26349 12.1985 8.21165 12.2894 8.14347C12.3817 8.07528 12.4592 7.99148 12.5217 7.89205C12.5856 7.79261 12.6296 7.67898 12.6538 7.55114L13.4506 7.5554C13.4208 7.76278 13.3562 7.95739 13.2567 8.1392C13.1587 8.32102 13.0302 8.48153 12.8711 8.62074C12.712 8.75852 12.5259 8.86648 12.3129 8.9446C12.0998 9.02131 11.8633 9.05966 11.6033 9.05966C11.2198 9.05966 10.8775 8.97088 10.5763 8.79332C10.2752 8.61577 10.038 8.35938 9.8647 8.02415C9.69141 7.68892 9.60476 7.28693 9.60476 6.81818C9.60476 6.34801 9.69212 5.94602 9.86683 5.61222C10.0415 5.27699 10.2795 5.0206 10.5806 4.84304C10.8817 4.66548 11.2227 4.5767 11.6033 4.5767C11.8462 4.5767 12.0721 4.6108 12.2809 4.67898C12.4897 4.74716 12.6758 4.8473 12.8391 4.9794C13.0025 5.11009 13.1367 5.2706 13.2418 5.46094C13.3484 5.64986 13.418 5.86577 13.4506 6.10866Z" fill="white"/>
</svg>
